<svg xmlns="http://www.w3.org/2000/svg" viewBox="0 0 243.6 60.54"><defs><style>.cls-1{fill:none;stroke:#58595b;stroke-miterlimit:10;}</style></defs><g id="Layer_2" data-name="Layer 2"><g id="Layer_1-2" data-name="Layer 1"><path class="cls-1" d="M50.36,45.47A20.84,20.84,0,0,1,49,52.78a21.22,21.22,0,0,1-4.12,6.83,20.68,20.68,0,0,1-7,5,23.85,23.85,0,0,1-10,1.93,23,23,0,0,1-13.13-3.66A23.21,23.21,0,0,1,6.45,52.82,36,36,0,0,1,3.58,38,35.76,35.76,0,0,1,6.45,23.22a23.12,23.12,0,0,1,8.31-10.06A23.09,23.09,0,0,1,27.89,9.52a23.7,23.7,0,0,1,10.94,2.33,20.33,20.33,0,0,1,7.24,6,21.7,21.7,0,0,1,3.69,7.84,20.87,20.87,0,0,1,.6,4.84H38.7a12.79,12.79,0,0,0-.19-2.17,12.05,12.05,0,0,0-1.73-4.88,9.9,9.9,0,0,0-3.58-3.4,10.64,10.64,0,0,0-5.31-1.25,10.56,10.56,0,0,0-6.42,2.06,13.49,13.49,0,0,0-4.42,6.3A30.54,30.54,0,0,0,15.43,38a30.82,30.82,0,0,0,1.62,10.83,13.67,13.67,0,0,0,4.42,6.34,10.58,10.58,0,0,0,6.42,2.08,10.68,10.68,0,0,0,4.6-.94,9.58,9.58,0,0,0,3.37-2.59A11.59,11.59,0,0,0,38,49.93a13.59,13.59,0,0,0,.74-4.46Z" transform="translate(-3.08 -6.55)"/><path class="cls-1" d="M77.94,66.55a23.46,23.46,0,0,1-11.37-2.66,19.5,19.5,0,0,1-7.67-7.34,20.79,20.79,0,0,1-2.76-10.78A20.73,20.73,0,0,1,58.9,35a19.08,19.08,0,0,1,7.67-7.28,23.9,23.9,0,0,1,11.37-2.61,23.9,23.9,0,0,1,11.37,2.61A19.08,19.08,0,0,1,97,35a20.73,20.73,0,0,1,2.76,10.75A20.79,20.79,0,0,1,97,56.55a19.5,19.5,0,0,1-7.67,7.34A23.46,23.46,0,0,1,77.94,66.55Zm0-9.23a9.67,9.67,0,0,0,5.29-1.42,9.4,9.4,0,0,0,3.49-4A14,14,0,0,0,88,45.77a13.74,13.74,0,0,0-1.24-6.06,9.19,9.19,0,0,0-3.49-4,10.72,10.72,0,0,0-10.56,0,9.23,9.23,0,0,0-3.51,4,13.88,13.88,0,0,0-1.24,6.06,14.11,14.11,0,0,0,1.24,6.09,9.45,9.45,0,0,0,3.51,4A9.69,9.69,0,0,0,77.94,57.32Z" transform="translate(-3.08 -6.55)"/><path class="cls-1" d="M119,7.05V65.69H107.54V7.05Z" transform="translate(-3.08 -6.55)"/><path class="cls-1" d="M148.25,66.55a23.46,23.46,0,0,1-11.37-2.66,19.56,19.56,0,0,1-7.67-7.34,20.79,20.79,0,0,1-2.76-10.78A20.73,20.73,0,0,1,129.21,35a19.15,19.15,0,0,1,7.67-7.28,26.07,26.07,0,0,1,22.74,0A19,19,0,0,1,167.29,35a20.73,20.73,0,0,1,2.76,10.75,20.79,20.79,0,0,1-2.76,10.78,19.43,19.43,0,0,1-7.67,7.34A23.43,23.43,0,0,1,148.25,66.55Zm0-9.23a9.67,9.67,0,0,0,5.29-1.42,9.4,9.4,0,0,0,3.49-4,14,14,0,0,0,1.24-6.09A13.74,13.74,0,0,0,157,39.71a9.19,9.19,0,0,0-3.49-4,10.72,10.72,0,0,0-10.56,0,9.23,9.23,0,0,0-3.51,4,13.88,13.88,0,0,0-1.23,6.06,14.12,14.12,0,0,0,1.23,6.09,9.45,9.45,0,0,0,3.51,4A9.69,9.69,0,0,0,148.25,57.32Z" transform="translate(-3.08 -6.55)"/><path class="cls-1" d="M177.29,65.69V25.84H189V39.58l-2.4-1.5a19.13,19.13,0,0,1,1.5-5.18,14.09,14.09,0,0,1,2.82-4.11,12.3,12.3,0,0,1,4.1-2.72,14.33,14.33,0,0,1,5.46-1,15.49,15.49,0,0,1,3.77.36,10.18,10.18,0,0,1,1.71.54L204,36.42a15.61,15.61,0,0,0-1.5-.6,9.31,9.31,0,0,0-3-.41,11.24,11.24,0,0,0-5,1,8.81,8.81,0,0,0-3.25,2.69,10.8,10.8,0,0,0-1.74,3.69,16.28,16.28,0,0,0-.53,4.09v18.8Z" transform="translate(-3.08 -6.55)"/><path class="cls-1" d="M227.65,66.59a28.22,28.22,0,0,1-6.87-.82,20.88,20.88,0,0,1-5.91-2.44,12.67,12.67,0,0,1-4.13-4,10.39,10.39,0,0,1-1.52-5.64V53h11.56v.53a3.37,3.37,0,0,0,1.93,3.19,11.43,11.43,0,0,0,5.24,1,15.08,15.08,0,0,0,3.32-.36,6.51,6.51,0,0,0,2.62-1.16,2.49,2.49,0,0,0,1-2,2.9,2.9,0,0,0-2.19-2.81,41.85,41.85,0,0,0-7-1.65,47,47,0,0,1-5.55-1.28A23.79,23.79,0,0,1,215,46.2a11.38,11.38,0,0,1-3.79-3.49,9,9,0,0,1-1.42-5.16,9.93,9.93,0,0,1,2.46-6.83,15.19,15.19,0,0,1,6.54-4.2,27.24,27.24,0,0,1,9-1.43,24.13,24.13,0,0,1,8.74,1.56,16.2,16.2,0,0,1,6.57,4.47,10.34,10.34,0,0,1,2.51,7v.53H234.14v-.45a3.27,3.27,0,0,0-1-2.44,6.1,6.1,0,0,0-2.42-1.41,10,10,0,0,0-3-.47,14.62,14.62,0,0,0-2.95.32,7.1,7.1,0,0,0-2.56,1.05,2.34,2.34,0,0,0-1.06,2,2.46,2.46,0,0,0,1.13,2.08,9.13,9.13,0,0,0,3.15,1.31c1.35.34,2.92.66,4.69,1s3.45.66,5.31,1.14a23.53,23.53,0,0,1,5.25,2.07,11.42,11.42,0,0,1,4,3.49,9.29,9.29,0,0,1,1.52,5.46,10.57,10.57,0,0,1-1.58,5.85,12,12,0,0,1-4.25,4,21.72,21.72,0,0,1-6,2.25A30.7,30.7,0,0,1,227.65,66.59Z" transform="translate(-3.08 -6.55)"/></g></g></svg>