<svg id="Layer_1" data-name="Layer 1" xmlns="http://www.w3.org/2000/svg" viewBox="0 0 21.04 21.05"><defs><style>.cls-1{fill:#f6851f;}.cls-2{fill:#fff;}</style></defs><path class="cls-1" d="M10.47,21.05a10.57,10.57,0,1,1,7.88-3.57l-.18.19A10.41,10.41,0,0,1,10.9,21Zm0-19.85h-.39a9.37,9.37,0,0,0,.38,18.73h.38a9.37,9.37,0,0,0,9-9.73h0a9.38,9.38,0,0,0-9.36-9Z"/><path class="cls-1" d="M14.54,4.59a.74.74,0,0,0-.73.74h0v6.74a.72.72,0,0,1-.71.73.75.75,0,0,1-.56-.25L11.1,10.86a.84.84,0,0,0-1.19-.08l-.08.08L8.38,12.55a.72.72,0,0,1-1.27-.48V5.33a.72.72,0,0,0-.64-.8.73.73,0,0,0-.8.63.48.48,0,0,0,0,.17V15.82a.73.73,0,0,0,.73.73h.39a.73.73,0,0,0,.55-.25l3.14-3.69,3.12,3.67a.68.68,0,0,0,.55.26h.39a.73.73,0,0,0,.72-.74V5.33a.74.74,0,0,0-.72-.74Z"/><path class="cls-1" d="M12.31,9.46a.34.34,0,0,0,.5.06A.34.34,0,0,0,13,9.24V5a.36.36,0,0,0-.36-.36H9.22A.36.36,0,0,0,8.87,5,.35.35,0,0,0,9,5.17Z"/><path class="cls-2" d="M8.43,6.36l1.69,2.15a.23.23,0,0,1,0,.29L8.43,11a.24.24,0,0,1-.34,0A.25.25,0,0,1,8,10.8V6.52a.24.24,0,0,1,.23-.25A.2.2,0,0,1,8.43,6.36Z"/></svg>