<?xml version="1.0" encoding="utf-8"?>
<!-- Generator: Adobe Illustrator 25.3.1, SVG Export Plug-In . SVG Version: 6.00 Build 0)  -->
<svg version="1.1" id="Layer_1" xmlns="http://www.w3.org/2000/svg" xmlns:xlink="http://www.w3.org/1999/xlink" x="0px" y="0px"
	 viewBox="0 0 37.8 18.6" style="enable-background:new 0 0 37.8 18.6;" xml:space="preserve">
<style type="text/css">
	.st0{fill:#FFFFFF;}
	.st1{fill:#F6851F;}
</style>
<g>
	<g>
		<path class="st0" d="M4,1.9c0,1.2-0.4,1.8-1.8,1.8H0.7v2.1c0,0.1-0.1,0.1-0.1,0.1H0.2c-0.1,0-0.1-0.1-0.1-0.1V0.1
			C0.1,0,0.2,0,0.2,0h2C3.6,0.1,4,0.7,4,1.9z M3.3,1.9c0-1.1-0.3-1.2-1.2-1.2H0.7v2.4h1.4C3,3.1,3.3,3,3.3,1.9z"/>
		<path class="st0" d="M5,3.9c0-1.2,0.9-2.2,2.1-2.2s2.1,0.9,2.1,2.2C9.2,5,8.3,6,7.1,6S5,5.1,5,3.9z M8.5,3.9C8.5,3,7.9,2.3,7,2.3
			S5.5,3,5.5,3.9S6.1,5.4,7,5.4S8.5,4.8,8.5,3.9z"/>
		<path class="st0" d="M14.2,3.3C14.2,3.4,14.2,3.4,14.2,3.3l-0.5,0.1c-0.1,0-0.1,0-0.1-0.1c0-0.7-0.4-1-1.1-1c-1,0-1.5,0.9-1.5,1.2
			v2.4c0,0.1-0.1,0.1-0.1,0.1h-0.4c-0.1,0-0.1-0.1-0.1-0.1V2c0-0.1,0.1-0.1,0.1-0.1h0.3C11,1.9,11,2,11,2v0.6h0.1
			c0.3-0.4,0.8-0.8,1.5-0.8C13.7,1.8,14.2,2.2,14.2,3.3z"/>
		<path class="st0" d="M19.4,5.4c-0.2,0.2-0.7,0.5-1.4,0.5c-0.8,0-1.6-0.4-1.6-1.7v-2h-1.2c-0.1,0-0.1-0.1-0.1-0.1V1.9
			c0-0.1,0.1-0.1,0.1-0.1h1.2V0.7c0-0.1,0.1-0.1,0.1-0.1h0.4C17,0.6,17,0.7,17,0.7v1.1h1.8c0.1,0,0.1,0.1,0.1,0.1v0.3
			c0,0.1-0.1,0.1-0.1,0.1H17v2c0,0.9,0.5,1.1,1,1.1c0.5,0,0.7-0.2,0.9-0.3C19,4.9,19,4.9,19.1,5l0.2,0.2C19.4,5.3,19.4,5.4,19.4,5.4
			z"/>
	</g>
	<g>
		<g>
			<path class="st1" d="M6.4,12.4v0.9c0,0.1-0.1,0.2-0.2,0.2H3.4v4.7c0,0.1-0.1,0.2-0.2,0.2H2c-0.1,0-0.2-0.1-0.2-0.2v-4.7H0.2
				c-0.1,0-0.2-0.1-0.2-0.2v-0.9c0-0.1,0.1-0.2,0.2-0.2h1.6v-0.6c0-2,1.3-2.5,2.8-2.5c0.7,0,1.8,0.1,1.8,0.4v0.9
				c0,0.1-0.1,0.2-0.2,0.2c-0.2,0-0.5-0.1-1.2-0.1c-0.9,0-1.6,0.3-1.6,1.4v0.4h2.9C6.3,12.2,6.4,12.3,6.4,12.4z"/>
			<path class="st1" d="M7.8,15.3c0-1.8,1.4-3.3,3.2-3.3s3.2,1.4,3.2,3.3c0,1.8-1.4,3.3-3.2,3.3S7.8,17.1,7.8,15.3z M12.6,15.3
				c0-1.1-0.7-1.8-1.7-1.8c-0.9,0-1.7,0.7-1.7,1.8s0.7,1.8,1.7,1.8C11.9,17,12.6,16.3,12.6,15.3z"/>
			<path class="st1" d="M21.7,17.2v1c0,0.1-0.1,0.2-0.2,0.2h-5.5c-0.1,0-0.2-0.1-0.2-0.2v-1c0-0.1,0.1-0.2,0.2-0.2H18v-6.2h-2
				c-0.1,0-0.2-0.1-0.2-0.2V9.7c0-0.1,0.1-0.2,0.2-0.2h3.4c0.1,0,0.2,0.1,0.2,0.2V17h1.9C21.6,17,21.7,17.1,21.7,17.2z"/>
			<path class="st1" d="M29.4,17.2v1c0,0.1-0.1,0.2-0.2,0.2h-5.4c-0.1,0-0.2-0.1-0.2-0.2v-1c0-0.1,0.1-0.2,0.2-0.2h2.1v-3.6H24
				c-0.1,0-0.2-0.1-0.2-0.2v-0.9c0-0.1,0.1-0.2,0.2-0.2h3.2c0.1,0,0.2,0.1,0.2,0.2V17h1.8C29.3,17,29.4,17.1,29.4,17.2z M25.7,10.1
				c0-0.5,0.4-0.9,0.9-0.9s0.9,0.4,0.9,0.9c0,0.5-0.4,0.9-0.9,0.9C26.1,11,25.7,10.6,25.7,10.1z"/>
			<path class="st1" d="M31.1,15.3c0-1.8,1.4-3.3,3.2-3.3s3.2,1.4,3.2,3.3c0,1.8-1.4,3.3-3.2,3.3C32.4,18.5,31.1,17.1,31.1,15.3z
				 M35.8,15.3c0-1.1-0.7-1.8-1.7-1.8c-0.9,0-1.7,0.7-1.7,1.8s0.7,1.8,1.7,1.8C35.1,17,35.8,16.3,35.8,15.3z"/>
		</g>
	</g>
</g>
</svg>
