<svg xmlns="http://www.w3.org/2000/svg" viewBox="0 0 236.06 76.04"><defs><style>.cls-1{fill:none;stroke:#58595b;stroke-miterlimit:10;}</style></defs><g id="Layer_2" data-name="Layer 2"><g id="Layer_1-2" data-name="Layer 1"><path class="cls-1" d="M23.84,66.59a27.15,27.15,0,0,1-10.56-1.91A15.74,15.74,0,0,1,6.15,59a16.53,16.53,0,0,1-2.57-9.48V47.27H15.25v2a7.76,7.76,0,0,0,2.17,5.92q2.17,2.07,6.46,2.07a13.28,13.28,0,0,0,6.64-1.37,4.83,4.83,0,0,0,2.32-4.52,5.26,5.26,0,0,0-1.74-3.9,16.14,16.14,0,0,0-4.73-3,59.12,59.12,0,0,0-6.81-2.5,36.52,36.52,0,0,1-7.73-3.45,17.45,17.45,0,0,1-5.72-5.44A14.57,14.57,0,0,1,4,24.91,13.34,13.34,0,0,1,6.54,16.6a16.41,16.41,0,0,1,7.05-5.26,26.66,26.66,0,0,1,10.1-1.82A27.83,27.83,0,0,1,34.1,11.34a15.65,15.65,0,0,1,7.09,5.44,15.24,15.24,0,0,1,2.57,9v2.25H32.13V26.33a7.44,7.44,0,0,0-2-5.59q-2-1.95-6.28-1.95a11.56,11.56,0,0,0-6.4,1.5,5.16,5.16,0,0,0-2.27,4.62,5.1,5.1,0,0,0,1.63,3.82,15.07,15.07,0,0,0,4.49,2.82c1.9.82,4.06,1.65,6.49,2.47a53.69,53.69,0,0,1,8.65,3.81,16,16,0,0,1,5.72,5.22,14.41,14.41,0,0,1,2,8,13.9,13.9,0,0,1-2.55,8.44,15.71,15.71,0,0,1-7.15,5.31A28.8,28.8,0,0,1,23.84,66.59Z" transform="translate(-3.08 -6.55)"/><path class="cls-1" d="M51.83,65.69V7.05H63.46V65.69Zm28.06,0V44.6a12.79,12.79,0,0,0-1.65-7.07Q76.59,35,72.2,35a9.37,9.37,0,0,0-4.8,1.14,7.28,7.28,0,0,0-3,3.21,11.06,11.06,0,0,0-1,4.84L60.08,41.9a17.44,17.44,0,0,1,2.14-8.76,15.53,15.53,0,0,1,5.91-5.91,17.42,17.42,0,0,1,8.72-2.14q7.32,0,11,4.3t3.67,12V65.69Z" transform="translate(-3.08 -6.55)"/><path class="cls-1" d="M113.73,66.52A20.39,20.39,0,0,1,106,65.13a12,12,0,0,1-5.31-4,10.5,10.5,0,0,1-1.92-6.38,10.13,10.13,0,0,1,2.33-6.9,14.79,14.79,0,0,1,6.17-4.07,34.08,34.08,0,0,1,8.35-1.86q6.57-.63,9.06-1.16c1.66-.35,2.5-1,2.5-1.84v-.07a3.91,3.91,0,0,0-2.12-3.49,11.52,11.52,0,0,0-5.91-1.28A10.84,10.84,0,0,0,113,35.51a5,5,0,0,0-2.12,4.4H99.44a12.65,12.65,0,0,1,2.61-8.1,16,16,0,0,1,7.07-5,28.06,28.06,0,0,1,10.09-1.71,28.81,28.81,0,0,1,9.72,1.6,16.47,16.47,0,0,1,7.18,4.78,12,12,0,0,1,2.72,8.11V56.8c0,1,0,2,.1,2.94a11.58,11.58,0,0,0,.43,2.57,7.89,7.89,0,0,0,.94,2.18,5.91,5.91,0,0,0,.94,1.2H129.79a8.06,8.06,0,0,1-.8-1.09,8.26,8.26,0,0,1-.92-1.91,15.8,15.8,0,0,1-.66-2.65,20.28,20.28,0,0,1-.21-3.13l2.4,1.65a10.47,10.47,0,0,1-3.39,4.26,17.25,17.25,0,0,1-5.55,2.74A24.08,24.08,0,0,1,113.73,66.52Zm3.12-8.71a13.23,13.23,0,0,0,5.12-1,8.81,8.81,0,0,0,3.88-3.14,9.5,9.5,0,0,0,1.5-5.59v-4l2.89,2.81a35.06,35.06,0,0,1-5.72,1.49c-2.16.38-4.32.69-6.47.91a17.72,17.72,0,0,0-5.72,1.3,3.17,3.17,0,0,0-1.9,3.09,3.43,3.43,0,0,0,1.62,3.1A9,9,0,0,0,116.85,57.81Z" transform="translate(-3.08 -6.55)"/><path class="cls-1" d="M147.35,82.09V25.84H159V82.09Zm24-15.5a15.69,15.69,0,0,1-8.67-2.53,18.6,18.6,0,0,1-6.3-6.83A19.64,19.64,0,0,1,154,47.57V47l5-.11v.45a8.69,8.69,0,0,0,1.35,4.85,9.19,9.19,0,0,0,3.49,3.21A9.57,9.57,0,0,0,175,53.85q2.84-2.64,2.84-8.27T175,37.38a9.79,9.79,0,0,0-11.14-1.46,9.22,9.22,0,0,0-3.49,3.13A8.54,8.54,0,0,0,159,43.89l-5-.3A18.92,18.92,0,0,1,156.36,34a17.82,17.82,0,0,1,6.3-6.54,16.26,16.26,0,0,1,8.67-2.41,18,18,0,0,1,15.85,9.35,22.15,22.15,0,0,1,2.61,11.14,23.84,23.84,0,0,1-2.56,11.56,17.53,17.53,0,0,1-6.75,7.07A18.21,18.21,0,0,1,171.33,66.59Z" transform="translate(-3.08 -6.55)"/><path class="cls-1" d="M201.49,49.26v-7.7h26.42l-1.13,2V42.39a9,9,0,0,0-1-4.11,8,8,0,0,0-3.14-3.22,10.48,10.48,0,0,0-5.42-1.26,11,11,0,0,0-5.68,1.41,9.09,9.09,0,0,0-3.64,4,14.54,14.54,0,0,0-1.26,6.34,16,16,0,0,0,1.22,6.55,9.13,9.13,0,0,0,3.64,4.18,11.4,11.4,0,0,0,6,1.46,16.34,16.34,0,0,0,4-.43,9.62,9.62,0,0,0,2.76-1.1,5.44,5.44,0,0,0,1.63-1.51,3.8,3.8,0,0,0,.67-1.61h11.48a11.23,11.23,0,0,1-1.72,4.94,15.55,15.55,0,0,1-4.17,4.35,21.22,21.22,0,0,1-6.47,3.06A30.69,30.69,0,0,1,217,66.59,23.94,23.94,0,0,1,205.51,64a19.06,19.06,0,0,1-7.62-7.32,21.16,21.16,0,0,1-2.7-10.79A21,21,0,0,1,198,35a19.08,19.08,0,0,1,7.69-7.28,24.05,24.05,0,0,1,11.42-2.61,23.6,23.6,0,0,1,11.48,2.65A18.46,18.46,0,0,1,236,35.13a22.46,22.46,0,0,1,2.63,11c0,.63,0,1.23,0,1.8a11.71,11.71,0,0,1-.11,1.28Z" transform="translate(-3.08 -6.55)"/></g></g></svg>