<svg xmlns="http://www.w3.org/2000/svg" viewBox="0 0 176.11 73.56"><defs><style>.cls-1{fill:none;stroke:#58595b;stroke-miterlimit:10;}</style></defs><g id="Layer_2" data-name="Layer 2"><g id="Layer_1-2" data-name="Layer 1"><path class="cls-1" d="M41.81,19.35H23.54l4.65-5.55V65.69H16.6V13.8l4.8,5.55H3v-9h38.8Z" transform="translate(-2.51 -9.85)"/><path class="cls-1" d="M48,82.91c-1.25,0-2.37,0-3.36-.13a9,9,0,0,1-1.85-.28V73.68a6.06,6.06,0,0,0,1.7.36,24,24,0,0,0,2.61.13,7.36,7.36,0,0,0,3.32-.73,7.47,7.47,0,0,0,2.55-2.07,9.76,9.76,0,0,0,1.67-3.13l.68-2L41.55,25.84H53.67l8.66,32.68H61l8.33-32.68h12L67.59,67.68a33.94,33.94,0,0,1-3.79,8.14,14.85,14.85,0,0,1-6,5.25A22.36,22.36,0,0,1,48,82.91Z" transform="translate(-2.51 -9.85)"/><path class="cls-1" d="M86.83,82.09V25.84H98.5V82.09Zm24-15.5a15.71,15.71,0,0,1-8.67-2.53,18.68,18.68,0,0,1-6.3-6.83,19.64,19.64,0,0,1-2.37-9.66V47l5-.11v.45a8.69,8.69,0,0,0,1.35,4.85,9.26,9.26,0,0,0,3.49,3.21,9.58,9.58,0,0,0,11.13-1.52c1.88-1.76,2.83-4.52,2.83-8.27s-.94-6.48-2.81-8.2a9.81,9.81,0,0,0-11.15-1.46,9.29,9.29,0,0,0-3.49,3.13,8.54,8.54,0,0,0-1.35,4.84l-5-.3A18.92,18.92,0,0,1,95.84,34a17.9,17.9,0,0,1,6.3-6.54,16.28,16.28,0,0,1,8.67-2.41,18,18,0,0,1,15.85,9.35,22.15,22.15,0,0,1,2.61,11.14,24,24,0,0,1-2.55,11.56A17.55,17.55,0,0,1,120,64.21,18.21,18.21,0,0,1,110.81,66.59Z" transform="translate(-2.51 -9.85)"/><path class="cls-1" d="M141,49.26v-7.7h26.42l-1.13,2V42.39a9,9,0,0,0-1-4.11,8,8,0,0,0-3.13-3.22,10.52,10.52,0,0,0-5.43-1.26A11,11,0,0,0,151,35.21a9.09,9.09,0,0,0-3.64,4,14.54,14.54,0,0,0-1.26,6.34,16,16,0,0,0,1.22,6.55A9.19,9.19,0,0,0,151,56.31a11.44,11.44,0,0,0,6,1.46,16.25,16.25,0,0,0,4-.43,9.5,9.5,0,0,0,2.76-1.1,5.44,5.44,0,0,0,1.63-1.51,4,4,0,0,0,.68-1.61h11.48a11.25,11.25,0,0,1-1.73,4.94,15.65,15.65,0,0,1-4.16,4.35,21.4,21.4,0,0,1-6.48,3.06,30.66,30.66,0,0,1-8.68,1.12A24,24,0,0,1,145,64a19.06,19.06,0,0,1-7.62-7.32,21.16,21.16,0,0,1-2.7-10.79A21,21,0,0,1,137.43,35a19.14,19.14,0,0,1,7.69-7.28,24.08,24.08,0,0,1,11.42-2.61A23.67,23.67,0,0,1,168,27.74a18.49,18.49,0,0,1,7.46,7.39,22.46,22.46,0,0,1,2.63,11c0,.63,0,1.23,0,1.8a9.61,9.61,0,0,1-.11,1.28Z" transform="translate(-2.51 -9.85)"/></g></g></svg>